<?xml version="1.0" encoding="UTF-8"?>
<svg version="1.1" xmlns="http://www.w3.org/2000/svg" width="500" height="500">
<path d="M0 0 C2.33889848 -0.00463722 4.67779623 -0.00966307 7.01669312 -0.01504517 C13.32585644 -0.02807041 19.63500918 -0.03459278 25.94418383 -0.03905582 C29.88832139 -0.04199812 33.83245613 -0.04610469 37.77659225 -0.05056 C48.71631296 -0.06264209 59.6560312 -0.07303707 70.59575844 -0.07643509 C71.29276529 -0.07665466 71.98977215 -0.07687422 72.70790043 -0.07710044 C73.40643925 -0.07731872 74.10497807 -0.077537 74.82468474 -0.07776189 C76.23989399 -0.07820534 77.65510325 -0.0786519 79.0703125 -0.07910156 C79.77228474 -0.07932299 80.47425698 -0.07954442 81.19750111 -0.07977256 C92.60661817 -0.08373237 104.01567184 -0.10123439 115.42476435 -0.12446108 C127.1627047 -0.14816351 138.90061315 -0.16063606 150.63857782 -0.16180301 C157.21975852 -0.16285192 163.80084917 -0.16878024 170.3820076 -0.18662262 C176.55942897 -0.20304961 182.73669198 -0.20528502 188.91412735 -0.19648361 C191.18252485 -0.19571078 193.45093071 -0.20008812 195.71930695 -0.20994186 C198.81075284 -0.22258659 201.90163114 -0.21682558 204.99307251 -0.20635986 C205.8943222 -0.21441627 206.79557189 -0.22247267 207.72413218 -0.23077321 C212.48655646 -0.19295034 215.66405143 0.0595258 219.52880859 3.16113281 C221.08789063 5.22851563 221.08789063 5.22851563 222.41162109 7.61425781 C222.9159668 8.50306641 223.4203125 9.391875 223.93994141 10.30761719 C224.46426758 11.24927734 224.98859375 12.1909375 225.52880859 13.16113281 C226.64758668 15.07471087 227.77006736 16.98612837 228.89599609 18.89550781 C230.06603171 20.90026999 231.23528282 22.90549021 232.40380859 24.91113281 C233.01949707 25.9666333 233.63518555 27.02213379 234.26953125 28.10961914 C237.51084641 33.6728092 240.72841291 39.24758764 243.90380859 44.84863281 C246.99696082 50.29311061 250.24372173 55.62679437 253.57177734 60.93066406 C255.54547056 64.1886367 257.39777222 67.49422955 259.23657227 70.8293457 C261.30969751 74.57021463 263.44808462 78.27260069 265.59130859 81.97363281 C266.29259888 83.18599609 266.29259888 83.18599609 267.00805664 84.42285156 C271.0606133 91.40423126 275.22017666 98.31872212 279.39160156 105.22949219 C282.40915023 110.24521428 285.29218365 115.30496467 288.04833984 120.46972656 C292.00413898 127.66113977 296.34309285 134.65123349 300.67333984 141.62207031 C304.28211848 147.43199691 307.74197368 153.26642716 310.97412109 159.29394531 C313.72865378 164.37391263 316.63082512 169.37028439 319.50976562 174.38037109 C320.49029044 176.09382294 321.46092968 177.81292028 322.43115234 179.53222656 C323.06150391 180.64726562 323.69185547 181.76230469 324.34130859 182.91113281 C324.6576123 183.48532959 324.97391602 184.05952637 325.29980469 184.65112305 C327.17538388 188.00102671 329.19012501 191.11500478 331.47802734 194.20019531 C337.73456198 202.91095622 340.5446851 209.86868497 340.59130859 220.72363281 C340.5996875 221.72249512 340.60806641 222.72135742 340.61669922 223.75048828 C340.32520927 231.12296065 337.96391917 235.40470583 333.52880859 241.16113281 C332.57971955 242.78848499 331.65645896 244.43166702 330.77880859 246.09863281 C323.48313152 259.70968927 315.85097639 273.09232733 307.96240234 286.36816406 C304.38926163 292.38430245 300.86211147 298.42675559 297.34130859 304.47363281 C290.70075934 315.87244223 284.03002879 327.2526672 277.30615234 338.60253906 C272.05740533 347.46500374 266.82966562 356.33306431 261.74365234 365.29003906 C251.77267078 382.78340787 241.58213528 400.17631623 231.16943359 417.41113281 C229.76963267 419.75746579 228.38805318 422.11266383 227.01318359 424.47363281 C226.33835937 425.62992187 226.33835937 425.62992187 225.64990234 426.80957031 C224.74886797 428.35493411 223.85035163 429.90176933 222.95458984 431.45019531 C222.54080078 432.15917969 222.12701172 432.86816406 221.70068359 433.59863281 C221.33040039 434.23671875 220.96011719 434.87480469 220.57861328 435.53222656 C219.52880859 437.16113281 219.52880859 437.16113281 217.52880859 439.16113281 C205.36460487 441.20263736 192.37038543 440.316578 180.0793457 440.32226562 C177.73074263 440.32690194 175.3821403 440.33192767 173.03353882 440.33731079 C166.69332553 440.35034582 160.35312278 440.35686051 154.01289821 440.36132145 C150.04983744 440.3642625 146.0867795 440.36836888 142.12372017 440.37282562 C131.13342792 440.38499339 120.14313754 440.395304 109.15283871 440.39870071 C108.45232912 440.39892028 107.75181953 440.39913985 107.03008238 440.39936607 C106.32802051 440.39958434 105.62595864 440.39980262 104.90262216 440.40002751 C103.48024746 440.40047096 102.05787275 440.40091753 100.63549805 440.40136719 C99.92996969 440.40158862 99.22444133 440.40181005 98.49753333 440.40203819 C87.03338735 440.40599705 75.56930448 440.42349521 64.10518294 440.44672671 C52.31303366 440.47042931 40.52091615 440.48290172 28.72874266 440.48406863 C22.11624811 440.48511764 15.50384317 440.49104778 8.89137077 440.50888824 C2.68359419 440.52531557 -3.52402482 440.52755048 -9.73181534 440.51874924 C-12.01149987 440.51797639 -14.29119272 440.52235396 -16.57085609 440.53220749 C-19.67768128 440.54485185 -22.78394165 440.53909136 -25.89076233 440.52862549 C-26.79658509 440.53668189 -27.70240785 440.5447383 -28.63567978 440.55303884 C-33.41471434 440.51527068 -36.58128786 440.25671928 -40.47119141 437.16113281 C-41.7980957 435.52978516 -41.7980957 435.52978516 -42.79541016 433.74707031 C-43.37029175 432.74317261 -43.37029175 432.74317261 -43.95678711 431.71899414 C-44.35341553 430.9986499 -44.75004395 430.27830566 -45.15869141 429.53613281 C-46.04120152 427.98517946 -46.92402232 426.43440286 -47.80712891 424.88378906 C-48.2515332 424.09375488 -48.6959375 423.3037207 -49.15380859 422.48974609 C-51.15205129 418.95764105 -53.21805062 415.4665958 -55.28369141 411.97363281 C-56.11853363 410.55448361 -56.95316316 409.13520928 -57.78759766 407.71582031 C-59.68705093 404.48937115 -61.59147685 401.26590497 -63.49853516 398.04394531 C-70.94088862 385.46999671 -78.32657277 372.86420053 -85.67871094 360.23730469 C-87.51218838 357.09077571 -89.34867319 353.9460199 -91.18603516 350.80175781 C-101.33226177 333.43491191 -101.33226177 333.43491191 -105.78369141 325.59863281 C-108.8149866 320.26639713 -111.95210039 315.0062836 -115.12133789 309.75561523 C-117.9222768 305.10419536 -120.64166091 300.41086822 -123.32421875 295.68994141 C-127.98747233 287.48342965 -132.73005575 279.32282725 -137.47119141 271.16113281 C-138.03708984 270.18692383 -138.60298828 269.21271484 -139.18603516 268.20898438 C-140.38293242 266.14977108 -141.5811903 264.09134805 -142.78076172 262.03369141 C-143.98964606 259.95439734 -145.19214629 257.87137828 -146.38818359 255.78466797 C-148.89175458 251.4399901 -151.3718194 247.17550378 -154.36181641 243.14550781 C-161.64352833 233.13676383 -162.29331568 222.96603937 -160.93359375 210.78076172 C-159.95769405 205.25203741 -157.24216883 201.53577371 -153.88427734 197.17724609 C-150.67459786 192.59785197 -148.15162365 187.56129244 -145.47119141 182.66113281 C-141.24458573 175.04332909 -136.94362848 167.52868039 -132.30712891 160.15332031 C-130.20418339 156.72596656 -128.23758329 153.2373361 -126.28369141 149.72363281 C-121.08151928 140.37930657 -115.61704896 131.19384934 -110.15625 121.99902344 C-107.44385417 117.43094329 -104.73780182 112.85912149 -102.03369141 108.28613281 C-101.50251709 107.38789795 -100.97134277 106.48966309 -100.42407227 105.56420898 C-95.75111024 97.65282459 -91.11911049 89.71781188 -86.49536133 81.77758789 C-83.12985676 75.99908004 -79.74758953 70.23106741 -76.34619141 64.47363281 C-72.66366581 58.23520594 -69.05693791 51.95563068 -65.47119141 45.66113281 C-51.35165698 20.8882394 -51.35165698 20.8882394 -43.94384766 9.45800781 C-42.88047453 7.79948421 -41.8505765 6.11933322 -40.84228516 4.42675781 C-39.47119141 2.16113281 -39.47119141 2.16113281 -38.47119141 1.16113281 C-25.75027718 -0.38675534 -12.78731245 0.00595293 0 0 Z M175.13476324 25.12490463 C149.04100071 24.74388081 122.94322984 24.70278032 96.84711361 24.69297028 C84.92519599 24.68705314 73.00474759 24.65213745 61.08325195 24.54736328 C50.60945552 24.45533229 40.13703075 24.41576914 29.66283327 24.4401021 C24.13920316 24.45122847 18.61841746 24.43679315 13.09525871 24.35942078 C7.91672914 24.28781239 2.74294959 24.28689384 -2.43575859 24.33982277 C-4.33006434 24.34689401 -6.22466924 24.32846875 -8.11842346 24.28221703 C-17.72817046 23.74997174 -17.72817046 23.74997174 -26.09445643 27.62202263 C-28.95200787 31.19329567 -30.87747976 35.10065027 -32.64917743 39.29615974 C-33.87379149 42.07454589 -35.44406493 44.62105096 -37.02587891 47.20800781 C-38.13373065 49.10841977 -39.24049278 51.00946732 -40.34619141 52.91113281 C-40.94351074 53.93698486 -41.54083008 54.96283691 -42.15625 56.01977539 C-43.92924189 59.06611502 -45.70054006 62.11343229 -47.47119141 65.16113281 C-47.96941406 66.01819824 -48.46763672 66.87526367 -48.98095703 67.75830078 C-53.19273657 75.00658113 -57.3944729 82.26005487 -61.53759766 89.54785156 C-66.3961749 98.09363344 -71.27818525 106.59407947 -76.48291016 114.93457031 C-79.29252851 119.49399027 -81.99230173 124.11562834 -84.69702148 128.73779297 C-87.00868732 132.68492607 -89.34317222 136.6156685 -91.71630859 140.52612305 C-96.57783386 148.54230229 -101.19791718 156.68733259 -105.77905273 164.86669922 C-108.78014072 170.21547611 -111.85406602 175.50726608 -115.02661133 180.75610352 C-117.81742051 185.40242111 -120.50280718 190.11040951 -123.19482422 194.81445312 C-125.46011381 198.75522544 -127.75727936 202.65471315 -130.21728516 206.47753906 C-130.64033936 207.14438721 -131.06339355 207.81123535 -131.49926758 208.49829102 C-132.289346 209.73510709 -133.09462188 210.96240183 -133.91772461 212.17749023 C-135.70992614 215.0051496 -136.46553889 217.01143231 -136.59228516 220.36816406 C-134.95217457 225.91710965 -132.18262649 230.61325224 -129.28369141 235.59863281 C-128.66018799 236.69030762 -128.03668457 237.78198242 -127.39428711 238.90673828 C-125.43250272 242.33229482 -123.45376332 245.74757196 -121.47119141 249.16113281 C-120.84825195 250.23927246 -120.2253125 251.31741211 -119.58349609 252.42822266 C-113.71795175 262.57844902 -107.78699291 272.68760126 -101.72729492 282.72314453 C-97.34485037 289.99786077 -93.11993151 297.36425122 -88.87841797 304.72167969 C-86.12731609 309.49076538 -83.36624122 314.25408583 -80.60546875 319.01757812 C-78.25660637 323.07173302 -75.91364482 327.12912108 -73.58056641 331.19238281 C-69.20079874 338.80885304 -64.77698461 346.34795555 -59.99853516 353.72363281 C-57.92586355 357.03142586 -56.10119372 360.45091459 -54.26025391 363.89160156 C-51.48097969 368.97075553 -48.55619905 373.96441348 -45.64453125 378.96850586 C-43.51069848 382.6370039 -41.37998796 386.30591116 -39.29931641 390.00488281 C-32.4275307 403.29249199 -32.4275307 403.29249199 -23.47119141 415.16113281 C-20.57727103 415.27908254 -17.70656755 415.33124246 -14.81147766 415.34194946 C-13.8919738 415.34915398 -12.97246993 415.3563585 -12.02510232 415.36378133 C-8.91900974 415.38664876 -5.81292528 415.4021201 -2.70678711 415.41748047 C-0.4898 415.4319203 1.72718506 415.44667781 3.94416809 415.46173096 C24.19591286 415.59208875 44.44820515 415.65811027 64.70028973 415.70957375 C67.41095194 415.7165829 70.12161381 415.72370984 72.83227539 415.73095703 C73.50601496 415.73275232 74.17975454 415.73454762 74.87391046 415.73639731 C85.78553475 415.76645722 96.69667723 415.83121515 107.60804953 415.90964349 C118.80649104 415.98947021 130.00476213 416.03454815 141.20350009 416.0485996 C147.49297242 416.0574782 153.7815179 416.08184174 160.07071495 416.14326859 C165.98811078 416.20040573 171.90409937 416.21521791 177.82172966 416.19739532 C179.99461393 416.1982756 182.16755459 416.21460238 184.34019089 416.24744034 C195.29207073 416.94177982 195.29207073 416.94177982 205.09476662 413.2198143 C206.68941473 410.88224727 207.62090878 408.82828458 208.52880859 406.16113281 C209.26106021 404.89314307 210.01714304 403.63819177 210.81005859 402.40722656 C211.55239537 401.13930338 212.2918697 399.86970093 213.02880859 398.59863281 C213.44114746 397.89319336 213.85348633 397.18775391 214.27832031 396.4609375 C215.69843507 394.02956821 217.11405406 391.59562488 218.52880859 389.16113281 C220.90264464 385.07712117 223.27748485 380.99369753 225.65380859 376.91113281 C226.25580078 375.87633789 226.85779297 374.84154297 227.47802734 373.77539062 C231.18314029 367.42173266 234.97573178 361.13965828 238.86865234 354.89941406 C241.0606124 351.28396936 243.03935604 347.56823922 245.03271484 343.84082031 C247.06458004 340.20150041 249.3216225 336.72884515 251.62255859 333.25488281 C253.84195954 329.65290423 255.83489334 325.95459003 257.84716797 322.23388672 C260.81854273 316.80448446 263.92924713 311.45555167 267.02880859 306.09863281 C267.66689453 304.99197266 268.30498047 303.8853125 268.96240234 302.74511719 C272.30774106 296.95405538 275.69498496 291.19255981 279.14794922 285.46508789 C281.31687776 281.84624443 283.42307655 278.19199051 285.52880859 274.53613281 C289.27064813 268.05743111 293.02297452 261.58500544 296.79199219 255.12207031 C297.98794907 253.07093124 299.18229551 251.0188523 300.375 248.96582031 C303.08705206 244.3049748 305.81873688 239.66180592 308.64208984 235.06738281 C309.11187256 234.29539551 309.58165527 233.5234082 310.06567383 232.72802734 C310.92776368 231.31590497 311.80023275 229.91004094 312.68530273 228.51220703 C315.14512268 224.46289255 315.96971105 221.86105832 315.52880859 217.16113281 C314.29846674 214.19000295 314.29846674 214.19000295 312.49365234 211.27441406 C311.84847656 210.17033203 311.20330078 209.06625 310.53857422 207.92871094 C309.84796328 206.77693171 309.15720751 205.62523931 308.46630859 204.47363281 C307.80953125 203.35279297 307.15275391 202.23195312 306.47607422 201.07714844 C302.80456374 194.84462375 299.01208158 188.70395101 295.07397461 182.63647461 C293.44705805 180.03016919 291.97527539 177.37119728 290.52880859 174.66113281 C288.50993004 170.88110489 286.35857538 167.25796574 284.02880859 163.66113281 C281.16918208 159.23715918 278.59878232 154.72800992 276.11083984 150.08691406 C270.63751358 139.96463907 264.73423421 130.07479415 258.88818359 120.16503906 C256.98644231 116.94096975 255.0974598 113.70977164 253.21630859 110.47363281 C249.99241462 104.93727283 246.72951703 99.42436444 243.46630859 93.91113281 C238.13072236 84.89444175 232.83874587 75.85303158 227.56542969 66.79980469 C223.68733887 60.14294153 219.79342289 53.49572916 215.8815918 46.85864258 C212.86828442 41.74482495 209.87945302 36.61729314 206.90380859 31.48144531 C205.83313793 29.67468858 204.69377219 27.9085782 203.52880859 26.16113281 C201.58619213 25.65728405 201.58619213 25.65728405 199.27760315 25.66369629 C198.35269294 25.63026878 197.42778273 25.59684128 196.47484493 25.56240082 C194.90549615 25.53102901 194.90549615 25.53102901 193.30444336 25.49902344 C191.60508684 25.45033993 191.60508684 25.45033993 189.87139988 25.40067291 C184.95952082 25.27557823 180.04762106 25.19924905 175.13476324 25.12490463 Z " fill="#070707" transform="translate(160.47119140625,29.8388671875)"/>
<path d="M0 0 C3.20518995 0.64817385 4.08390623 1.82496332 6.10546875 4.42578125 C7.86788936 7.71762977 9.33556066 11.1147842 10.79296875 14.55078125 C11.22504639 15.55834473 11.65712402 16.5659082 12.10229492 17.60400391 C19.32368499 34.75891959 25.15404854 52.49090399 30.10546875 70.42578125 C30.33298828 71.23869629 30.56050781 72.05161133 30.79492188 72.88916016 C32.61284326 79.38883509 34.37670842 85.90184731 36.10546875 92.42578125 C36.35973633 93.38403809 36.61400391 94.34229492 36.87597656 95.32958984 C40.71292932 109.90952278 43.81607439 124.54992439 46.53955078 139.37597656 C47.06468073 142.20596936 47.60891085 145.03123246 48.1640625 147.85546875 C50.05608837 157.4991664 51.77479239 167.16345271 53.35546875 176.86328125 C53.53086182 177.92426025 53.70625488 178.98523926 53.88696289 180.07836914 C56.10005389 193.93390354 56.10005389 193.93390354 53.10546875 198.42578125 C49.9760441 199.99049358 46.49464652 200.12280083 43.10546875 199.42578125 C39.51690514 196.50267755 38.5652046 194.48191045 38.0859375 189.921875 C37.95413086 188.80490234 37.82232422 187.68792969 37.68652344 186.53710938 C37.55665039 185.32474609 37.42677734 184.11238281 37.29296875 182.86328125 C36.97826486 180.25611651 36.6572272 177.6511335 36.3203125 175.046875 C36.18745346 174.01921524 36.18745346 174.01921524 36.0519104 172.97079468 C34.68582015 162.83596633 32.49664044 152.84336387 30.39135742 142.84155273 C30.24049179 142.11749741 30.08962616 141.39344208 29.93418884 140.64744568 C29.52293033 138.67921751 29.1040162 136.71259339 28.68457031 134.74609375 C28.18129689 131.8605463 28.05950948 129.33679358 28.10546875 126.42578125 C20.64879644 126.68658851 13.19237148 126.95375676 5.73608398 127.2253418 C3.19967816 127.31697613 0.66321934 127.40715587 -1.87329102 127.49584961 C-5.51984334 127.62361098 -9.16617291 127.75660753 -12.8125 127.890625 C-13.94600388 127.92921127 -15.07950775 127.96779755 -16.24736023 128.0075531 C-17.30808243 128.04751907 -18.36880463 128.08748505 -19.46166992 128.12866211 C-20.39210617 128.16197128 -21.32254242 128.19528046 -22.28117371 128.229599 C-24.88880092 128.42535108 -27.34441098 128.8575169 -29.89453125 129.42578125 C-31.08601867 134.77208932 -32.27299833 140.11937339 -33.45547485 145.46768188 C-33.87214782 147.35175156 -34.28944213 149.23568393 -34.70736694 151.11947632 C-37.76835754 164.9209419 -37.76835754 164.9209419 -40.46484375 178.796875 C-40.68116455 179.99006348 -40.89748535 181.18325195 -41.12036133 182.41259766 C-41.50184562 184.57513576 -41.86963616 186.74014974 -42.22143555 188.90771484 C-43.42591807 195.77832998 -43.42591807 195.77832998 -45.80859375 199.0703125 C-48.90744207 201.0839836 -51.28959323 200.81904722 -54.89453125 200.42578125 C-57.89453125 198.42578125 -57.89453125 198.42578125 -58.703125 194.51171875 C-59.14546483 188.82578525 -58.12155989 183.59944323 -56.95703125 178.05078125 C-56.62131104 176.38366089 -56.62131104 176.38366089 -56.27880859 174.68286133 C-53.25306999 159.91043439 -49.83815974 145.22000111 -46.39056396 130.54138184 C-45.9124976 128.50240849 -45.43742335 126.46276329 -44.96337891 124.42285156 C-41.3674564 108.98928585 -37.379373 93.75152364 -32.82568359 78.57421875 C-31.44636319 73.91042329 -30.13112561 69.22897689 -28.81030273 64.54833984 C-26.14214773 55.10120598 -23.4614403 45.6937819 -20.2421875 36.41796875 C-19.07470502 33.02779679 -18.01166295 29.60925993 -16.953125 26.18359375 C-16.42912109 24.50076294 -16.42912109 24.50076294 -15.89453125 22.78393555 C-15.20086732 20.5507266 -14.51433873 18.31528526 -13.8359375 16.07739258 C-8.96300656 0.48766827 -8.96300656 0.48766827 0 0 Z M-1.89453125 28.42578125 C-3.32309465 32.99372328 -4.75047371 37.5620334 -6.17718506 42.1305542 C-6.8535238 44.29457344 -7.53134493 46.45812286 -8.20947266 48.62158203 C-13.33457847 64.9930791 -18.31189297 81.38698901 -22.64453125 97.98828125 C-22.90938828 98.98772263 -22.90938828 98.98772263 -23.17959595 100.00735474 C-23.67220587 101.87481716 -24.1509222 103.74592811 -24.62890625 105.6171875 C-24.89928711 106.67107666 -25.16966797 107.72496582 -25.44824219 108.81079102 C-26.12301277 111.52587114 -26.12301277 111.52587114 -24.89453125 114.42578125 C-18.7195841 114.16422451 -12.54488592 113.89757012 -6.37036133 113.6262207 C-4.2704869 113.53465406 -2.17055158 113.4444727 -0.07055664 113.35571289 C2.95052959 113.2277795 5.97136072 113.0948412 8.9921875 112.9609375 C9.92882736 112.92235123 10.86546722 112.88376495 11.83049011 112.8440094 C16.01330769 112.65415858 20.02373616 112.44528079 24.10546875 111.42578125 C22.32179696 100.7817561 19.92752623 90.47129751 16.89160156 80.11669922 C16.01016817 77.09956916 15.14819848 74.07712772 14.28515625 71.0546875 C10.12353064 56.61681699 5.4647049 42.46361967 0.10546875 28.42578125 C-0.55453125 28.42578125 -1.21453125 28.42578125 -1.89453125 28.42578125 Z " fill="#0D0D0D" transform="translate(310.89453125,150.57421875)"/>
<path d="M0 0 C1.05058594 -0.01546875 2.10117188 -0.0309375 3.18359375 -0.046875 C15.49146375 0.01397973 25.95171689 4.29523338 34.8828125 12.7578125 C43.51207909 21.84274994 48.5760511 31.84624826 48.86328125 44.484375 C48.39110938 47.10416729 47.64669279 47.94961076 45.5 49.5 C42.40848029 50.23444943 39.60451345 50.15477011 36.5 49.5 C32.05163496 45.29208712 31.18027478 39.29625319 29.48046875 33.55859375 C27.00798164 25.84561603 22.31466613 22.34447773 15.5 18.5 C5.80294311 14.16727245 -4.65287587 15.07395232 -14.5 18.5 C-22.22790835 22.78384663 -27.73901257 27.56923518 -30.75 36 C-32.75867557 45.51381792 -32.67820648 55.09237442 -27.5 63.5 C-26.52798869 64.85387289 -25.54115841 66.19855198 -24.5 67.5 C-24.5 68.16 -24.5 68.82 -24.5 69.5 C-23.69151611 69.86653687 -23.69151611 69.86653687 -22.86669922 70.24047852 C-19.92517419 71.80591359 -17.33678691 73.70462993 -14.6328125 75.65234375 C-7.31250149 80.81866858 0.45868435 84.90559445 8.42138672 88.98217773 C27.42371732 98.75236596 45.6705999 111.740227 53.5 132.5 C57.87212576 147.94347649 57.78096536 162.80696037 49.8984375 177.234375 C47.68370714 180.82248564 45.41690525 184.43767719 42.5 187.5 C41.84 187.5 41.18 187.5 40.5 187.5 C40.5 188.16 40.5 188.82 40.5 189.5 C27.21460516 201.40587303 11.2254739 203.40426784 -5.78173828 202.72216797 C-15.84910842 201.89934537 -24.1793701 197.27778658 -31.5 190.5 C-32.0465625 190.00886719 -32.593125 189.51773438 -33.15625 189.01171875 C-34.5625 187.6875 -34.5625 187.6875 -36.5 185.5 C-36.5 184.84 -36.5 184.18 -36.5 183.5 C-37.16 183.5 -37.82 183.5 -38.5 183.5 C-50.11274235 161.99256486 -50.11274235 161.99256486 -48.13671875 150.28515625 C-47.5 148.5 -47.5 148.5 -45.3125 146.375 C-41.87773364 145.30640602 -39.93095816 145.45579534 -36.5 146.5 C-33.69096645 148.38666432 -33.43070137 149.77249632 -32.578125 153.125 C-32.29903083 154.58275223 -32.02315347 156.04112293 -31.75 157.5 C-29.66500892 167.24405776 -26.32125434 175.18806687 -17.875 181.0625 C-7.7081454 187.24703069 3.5990101 187.7996888 15.046875 185.26171875 C23.28307408 182.70430025 30.16536878 177.93079637 34.5 170.5 C35.16 170.5 35.82 170.5 36.5 170.5 C36.685625 169.5409375 36.685625 169.5409375 36.875 168.5625 C37.21753237 166.88409141 37.57675133 165.20764188 38.01171875 163.55078125 C40.7217594 152.84515967 40.48343998 141.8716533 35.140625 131.984375 C32.34246041 127.6284693 29.19906391 124.09026792 25.5 120.5 C25.5 119.84 25.5 119.18 25.5 118.5 C24.84 118.5 24.18 118.5 23.5 118.5 C23.5 117.84 23.5 117.18 23.5 116.5 C22.76652344 116.23445313 22.03304687 115.96890625 21.27734375 115.6953125 C18.52205452 114.50949182 16.46089264 113.16236366 14.0625 111.375 C5.29377994 105.09857984 -4.29665997 100.1399777 -13.76171875 95.0078125 C-28.63113999 86.82008554 -28.63113999 86.82008554 -32.5 83.5 C-32.5 82.84 -32.5 82.18 -32.5 81.5 C-33.16 81.5 -33.82 81.5 -34.5 81.5 C-34.5 80.84 -34.5 80.18 -34.5 79.5 C-35.16 79.5 -35.82 79.5 -36.5 79.5 C-36.5 78.84 -36.5 78.18 -36.5 77.5 C-37.16 77.5 -37.82 77.5 -38.5 77.5 C-47.20130359 67.17090153 -49.01620999 53.6204327 -48.3515625 40.58984375 C-46.80637534 28.93226508 -40.31679265 17.13649993 -31.2890625 9.671875 C-21.52946477 2.34447986 -12.11025635 -0.17831052 0 0 Z " fill="#0E0E0E" transform="translate(183.5,148.5)"/>
<path d="M0 0 C3.02560278 -0.30070898 5.84740299 -0.40400251 8.87608337 -0.38095093 C9.80672546 -0.3856309 10.73736755 -0.39031087 11.69621092 -0.39513266 C14.83399323 -0.40715787 17.97134483 -0.39759607 21.10913086 -0.38818359 C23.35083777 -0.39224598 25.59254268 -0.39758597 27.83424377 -0.40411377 C33.93748751 -0.41783355 40.04057974 -0.41246929 46.14382625 -0.40297651 C52.51927407 -0.39540307 58.89470855 -0.40241915 65.27015686 -0.40713501 C76.66634551 -0.4129502 88.06244995 -0.40360191 99.45862437 -0.388357 C109.79626239 -0.3749563 120.13379935 -0.37727823 130.47143555 -0.39111328 C142.46749808 -0.40716025 154.46348423 -0.4131477 166.45956141 -0.40427649 C172.81282228 -0.39959095 179.1660135 -0.39899919 185.51926994 -0.40888596 C191.49216223 -0.41753075 197.46486307 -0.41157922 203.4377346 -0.39420319 C205.63438855 -0.39022485 207.83105851 -0.39139526 210.02770615 -0.39799118 C213.01766846 -0.40614368 216.00701059 -0.39596136 218.99693298 -0.38095093 C219.87396643 -0.38764309 220.75099988 -0.39433526 221.6546101 -0.40123022 C227.60715989 -0.34294371 227.60715989 -0.34294371 229.74526983 1.52359521 C230.15933079 2.01080879 230.57339174 2.49802237 231 3 C230.67 3.66 230.34 4.32 230 5 C229.67 4.01 229.34 3.02 229 2 C153.76 2 78.52 2 1 2 C0.34 3.65 -0.32 5.3 -1 7 C-1.625 5.1875 -1.625 5.1875 -2 3 C-1.34 2.01 -0.68 1.02 0 0 Z " fill="#595959" transform="translate(135,54)"/>
<path d="M0 0 C1.6874269 0.00015917 3.37485866 0.00585622 5.06225586 0.01586914 C6.39189613 0.01799156 6.39189613 0.01799156 7.74839783 0.02015686 C10.59133215 0.02577324 13.43418892 0.03832848 16.27709961 0.05102539 C18.19962452 0.05603828 20.12215065 0.06060155 22.04467773 0.06469727 C26.7680151 0.07574798 31.49129419 0.09302356 36.21459961 0.11352539 C36.21459961 0.44352539 36.21459961 0.77352539 36.21459961 1.11352539 C35.08441406 1.11763428 33.95422852 1.12174316 32.78979492 1.12597656 C28.59239231 1.14776562 24.39592744 1.20205213 20.19897461 1.26611328 C18.3833109 1.28929542 16.56751268 1.30368953 14.75170898 1.30908203 C12.139528 1.31837042 9.52946311 1.35935476 6.91772461 1.40649414 C5.7018869 1.40059517 5.7018869 1.40059517 4.46148682 1.39457703 C0.3660086 1.50036178 -1.37701236 1.70509817 -4.3293457 4.65771484 C-4.80984375 5.46813232 -5.2903418 6.2785498 -5.78540039 7.11352539 C-4.74714296 0.14236836 -4.74714296 0.14236836 0 0 Z " fill="#313131" transform="translate(138.785400390625,53.886474609375)"/>
<path d="M0 0 C-6.63791222 4.08486906 -12.24507557 4.91989448 -20 4 C-22.86328125 2.9765625 -22.86328125 2.9765625 -25 2 C-22.07433566 1.02477855 -20.45644563 0.95104615 -17.4375 1.0625 C-12.75479499 1.13126219 -8.57222444 0.43916193 -4.03125 -0.66015625 C-2 -1 -2 -1 0 0 Z " fill="#434344" transform="translate(203,334)"/>
<path d="M0 0 C0.66 0.33 1.32 0.66 2 1 C1.64808594 1.58265625 1.29617187 2.1653125 0.93359375 2.765625 C-3.10653691 9.4745626 -7.06699296 16.22778078 -11 23 C-11.33 21.68 -11.66 20.36 -12 19 C-11.34 19 -10.68 19 -10 19 C-9.01 15.535 -9.01 15.535 -8 12 C-7.34 12 -6.68 12 -6 12 C-6 10.68 -6 9.36 -6 8 C-5.34 8 -4.68 8 -4 8 C-3.896875 7.236875 -3.79375 6.47375 -3.6875 5.6875 C-2.95635961 2.82940576 -2.23048087 1.84257115 0 0 Z " fill="#4A4A4A" transform="translate(99,117)"/>
<path d="M0 0 C1.9375 0.6875 1.9375 0.6875 4 2 C4.75 4.625 4.75 4.625 5 7 C5.66 7 6.32 7 7 7 C7 8.32 7 9.64 7 11 C7.99 11.33 8.98 11.66 10 12 C11.1875 14.5625 11.1875 14.5625 12 17 C11.01 17 10.02 17 9 17 C7.68417937 14.73103368 6.37224764 12.45996813 5.0625 10.1875 C4.68931641 9.54490234 4.31613281 8.90230469 3.93164062 8.24023438 C2.36533365 5.51683576 0.99630626 2.98891878 0 0 Z " fill="#424242" transform="translate(37,324)"/>
<path d="M0 0 C2.00561672 3.87752567 3.16226989 7.1134943 3.25 11.5 C3.27578125 12.2734375 3.3015625 13.046875 3.328125 13.84375 C3 16 3 16 1.671875 17.78125 C0 19 0 19 -3 19 C-3 17 -3 17 -1 15 C-0.01 15 0.98 15 2 15 C1.67 14.195625 1.34 13.39125 1 12.5625 C-0.20717135 8.26195205 -0.17721353 4.43033819 0 0 Z " fill="#444444" transform="translate(229,179)"/>
<path d="M0 0 C0.66 0 1.32 0 2 0 C1.34 6.27 0.68 12.54 0 19 C-0.66 19 -1.32 19 -2 19 C-2.02721176 17.10424749 -2.04649136 15.20838021 -2.0625 13.3125 C-2.07410156 12.25675781 -2.08570313 11.20101562 -2.09765625 10.11328125 C-1.98284519 6.45310469 -1.64586457 3.29172913 0 0 Z " fill="#393939" transform="translate(151,182)"/>
<path d="M0 0 C0.99 0 1.98 0 3 0 C1.62712658 3.69876091 -0.06355453 6.9514476 -2.125 10.3125 C-2.66382813 11.19550781 -3.20265625 12.07851563 -3.7578125 12.98828125 C-4.37269531 13.98408203 -4.37269531 13.98408203 -5 15 C-5.33 13.68 -5.66 12.36 -6 11 C-5.34 11 -4.68 11 -4 11 C-4 10.01 -4 9.02 -4 8 C-3.34 8 -2.68 8 -2 8 C-1.7834375 6.576875 -1.7834375 6.576875 -1.5625 5.125 C-1 2 -1 2 0 0 Z " fill="#4B4B4B" transform="translate(415,401)"/>
<path d="M0 0 C0.609375 1.8515625 0.609375 1.8515625 1 4 C-0.75 6.375 -0.75 6.375 -3 9 C-4.04451438 10.97711651 -5.05698138 12.97250996 -6 15 C-6.66 15 -7.32 15 -8 15 C-6.62712658 11.30123909 -4.93644547 8.0485524 -2.875 4.6875 C-2.33617188 3.80449219 -1.79734375 2.92148437 -1.2421875 2.01171875 C-0.83226563 1.34785156 -0.42234375 0.68398438 0 0 Z " fill="#484848" transform="translate(109,52)"/>
<path d="M0 0 C0.99 0.33 1.98 0.66 3 1 C3.33 2.65 3.66 4.3 4 6 C4.66 6 5.32 6 6 6 C6 7.32 6 8.64 6 10 C6.99 10.33 7.98 10.66 9 11 C8.01 12.485 8.01 12.485 7 14 C5.82807953 12.04480616 4.6626071 10.0857461 3.5 8.125 C2.8503125 7.03445313 2.200625 5.94390625 1.53125 4.8203125 C0 2 0 2 0 0 Z " fill="#404040" transform="translate(13,282)"/>
<path d="M0 0 C0.66 0 1.32 0 2 0 C2 0.66 2 1.32 2 2 C2.66 2 3.32 2 4 2 C4 2.99 4 3.98 4 5 C4.66 5 5.32 5 6 5 C6.33 7.31 6.66 9.62 7 12 C0 3.55172414 0 3.55172414 0 0 Z " fill="#5A5A5A" transform="translate(89,413)"/>
<path d="M0 0 C3 1 3 1 4.6875 3.875 C6 7 6 7 6 10 C6.66 10.33 7.32 10.66 8 11 C7.01 11 6.02 11 5 11 C4.16151196 9.54462432 3.32936066 8.08559627 2.5 6.625 C1.80390625 5.40683594 1.80390625 5.40683594 1.09375 4.1640625 C0 2 0 2 0 0 Z " fill="#545454" transform="translate(77,392)"/>
<path d="M0 0 C0.33 0.66 0.66 1.32 1 2 C-1.19566645 8.47143795 -1.19566645 8.47143795 -4.1875 10.4375 C-5.0846875 10.7159375 -5.0846875 10.7159375 -6 11 C-4.54955729 6.89041233 -2.48889248 3.56741255 0 0 Z " fill="#3F3F3F" transform="translate(437,319)"/>
<path d="M0 0 C0.75 1.625 0.75 1.625 1 4 C-0.8125 7.25 -0.8125 7.25 -3 10 C-3.66 10 -4.32 10 -5 10 C-3.66511872 6.40608886 -2.03977277 3.24509304 0 0 Z " fill="#4C4C4C" transform="translate(23,199)"/>
<path d="M0 0 C0.99 0.33 1.98 0.66 3 1 C0.525 5.455 0.525 5.455 -2 10 C-2.33 8.68 -2.66 7.36 -3 6 C-2.34 6 -1.68 6 -1 6 C-0.67 4.02 -0.34 2.04 0 0 Z " fill="#3C3C3C" transform="translate(457,329)"/>
<path d="M0 0 C0.66 0 1.32 0 2 0 C2.66 2.97 3.32 5.94 4 9 C3.01 8.67 2.02 8.34 1 8 C-0.35439668 5.29120665 -0.06501451 2.99066732 0 0 Z " fill="#363636" transform="translate(22,247)"/>
<path d="M0 0 C0.625 1.8125 0.625 1.8125 1 4 C0.01 5.485 0.01 5.485 -1 7 C-1.66 7 -2.32 7 -3 7 C-3 7.99 -3 8.98 -3 10 C-3.66 10 -4.32 10 -5 10 C-3.66511872 6.40608886 -2.03977277 3.24509304 0 0 Z " fill="#555555" transform="translate(37,175)"/>
<path d="M0 0 C0.33 0.66 0.66 1.32 1 2 C-0.25 5.5625 -0.25 5.5625 -2 9 C-2.99 9.33 -3.98 9.66 -5 10 C-3.66511872 6.40608886 -2.03977277 3.24509304 0 0 Z " fill="#515151" transform="translate(81,100)"/>
<path d="M0 0 C0.8125 1.6875 0.8125 1.6875 1 4 C-1.4375 6.75 -1.4375 6.75 -4 9 C-3.35455571 5.51460083 -1.89865603 2.97180943 0 0 Z " fill="#545454" transform="translate(377,421)"/>
<path d="M0 0 C2 0 2 0 3.625 1.25 C5 3 5 3 5 7 C5.66 7.33 6.32 7.66 7 8 C6.01 8 5.02 8 4 8 C2.68 5.36 1.36 2.72 0 0 Z " fill="#4C4C4C" transform="translate(455,212)"/>
<path d="M0 0 C0.99 0.33 1.98 0.66 3 1 C4.6875 4.5625 4.6875 4.5625 6 8 C5.01 8.495 5.01 8.495 4 9 C2.68 6.03 1.36 3.06 0 0 Z " fill="#3F3F3F" transform="translate(418,148)"/>
<path d="M0 0 C1.125 3.75 1.125 3.75 0 6 C-0.66 6 -1.32 6 -2 6 C-2 6.99 -2 7.98 -2 9 C-2.66 9 -3.32 9 -4 9 C-2.94124926 5.59687262 -1.99097846 2.98646769 0 0 Z " fill="#5A5A5A" transform="translate(17,209)"/>
</svg>
